<svg class="logo" version="1.1" id="bbde9401-ce9e-4acd-92e8-20c4a77cd0e0" xmlns="http://www.w3.org/2000/svg" xmlns:xlink="http://www.w3.org/1999/xlink" x="0px" y="0px" viewBox="0 0 363.9 176.3" style="enable-background:new 0 0 363.9 176.3;" xml:space="preserve">
<style type="text/css">
	.st0{fill:#FFFFFF;}
</style>
<g id="SEEK22_x5F_White_x5F_Dates_00000178205327330116920510000005010573973485874562_">
	<g>
		<g>
			<g>
				<g>
					<path class="st0" d="M266.5,167c0-1,0-2,0-3c0-1,0-2,0.1-2.9c0-0.8,0.1-1.7,0.2-2.5c0-0.4,0.1-0.8,0.1-1.2
						c0-0.2,0.1-0.5,0.2-0.7c0.1-0.4,0.1-0.8,0-1.3c-0.2-0.6-0.2-1.3-0.1-1.9c0.1-0.5,0.2-1.1,0.2-1.6c0.1-0.6,0.6-1.1,0.8-1.6
						c0.1-0.2,0.3-0.4,0.5-0.7c0.4-0.6,0.7-1.1,0.9-1.7c0-0.1,0.1-0.2,0.2-0.1c0.8,0.1,1.6,0.2,2.3,0.3c0.1,0,0.2-0.1,0.2-0.2
						c0.1-0.3,0.1-0.5,0.1-0.8c0-0.2-0.1-0.3-0.2-0.3c-0.3-0.1-0.6-0.1-0.9-0.2c-0.8-0.1-1.7-0.2-2.5-0.2c-0.6,0-1.2-0.1-1.8-0.1
						c-0.2,0-0.3-0.1-0.3-0.3c0-0.5,0-1,0-1.5c0-0.3,0.1-0.5,0.1-0.8c-0.2-0.7,0-1.4,0-2.1c0-0.3-0.2-0.2-0.3-0.2
						c-0.3,0-0.6,0-0.8,0c-0.2,0-0.2,0.1-0.2,0.3c0,0.4,0,0.8,0,1.1c0,0.2,0,0.4-0.2,0.5c0,0-0.1,0.1-0.1,0.2c0,0.4,0,0.8,0.3,1.1
						c0,0,0.1,0.1,0.1,0.1c0,0.5,0,1,0,1.6c0,0.1-0.1,0.2-0.2,0.2c-0.2,0-0.4,0-0.6,0.1c-1.1,0-2.1,0.1-3.2,0.2
						c-0.4,0.1-0.8,0.1-1.3,0.2c-0.2,0-0.3,0.1-0.2,0.3c0,0.3,0.1,0.6,0.1,0.8c0,0.2,0.1,0.2,0.3,0.2c0.4-0.1,0.7-0.2,1.1-0.3
						c0.4-0.1,0.9-0.1,1.3-0.2c0.1,0,0.2,0.1,0.2,0.1c0.2,0.5,0.4,0.9,0.7,1.4c0.3,0.6,0.7,1.2,1,1.8c0.3,0.5,0.5,1.1,0.6,1.7
						c0,0.3,0.1,0.6,0.2,0.9c0.1,0.2,0,0.4-0.1,0.6c-0.1,0.2-0.1,0.5-0.2,0.7c-0.1,0.5-0.2,0.9-0.2,1.4c0,1-0.1,1.9,0.2,2.8
						c0,0.1,0,0.1,0,0.2c0,0.4,0.1,0.9,0.2,1.3c0.1,0.4,0.1,0.8,0.1,1.2c0,1.1,0,2.3,0,3.4c0,0.6-0.1,1.2-0.1,1.8
						c0,0.1-0.1,0.1-0.2,0.2c-2.8,0.5-5.6,0.9-8.3,1.4c-1.7,0.3-3.4,0.7-5,1.1c-0.1,0-0.2,0-0.4-0.1c-2.2-2.6-3.6-5.6-4.1-9
						c-1-6.2,0.7-11.6,4.9-16.2c2.9-3.1,6.4-5,10.6-5.7c6.2-1,11.7,0.7,16.3,5c3,2.8,4.8,6.3,5.6,10.3c0.2,1.2,0.3,2.4,0.3,3.6
						c0,2.8-0.6,5.4-1.8,7.9c-0.1,0.2-0.2,0.2-0.4,0.2c-0.8,0-1.5,0-2.3,0.1c-1.2,0.1-2.4,0.1-3.6,0.2c-1.3,0.1-2.6,0.2-3.9,0.4
						c-1.2,0.1-2.4,0.2-3.6,0.4c-0.8,0.1-1.6,0.2-2.4,0.3C266.8,167,266.7,167,266.5,167"></path>
					<path class="st0" d="M315.2,159c-0.4-2.4-1.5-4.4-3.5-5.8c-2.2-1.6-4.7-2-7.3-1.6c-2.1,0.4-3.9,1.3-5.3,3c-1.7,2-2.3,4.3-2,6.9
						c0.3,2.4,1.4,4.4,3.2,5.8c2.3,1.8,4.9,2.3,7.7,1.8c4.3-0.8,7.3-4.4,7.3-8.8C315.3,159.9,315.2,159.5,315.2,159z M310.6,164.4
						c-2.8,3.5-8.3,2.6-9.9-1.6c-0.3-0.8-0.4-1.6-0.4-2.4c0.1-2.5,1.1-4.4,3.5-5.5c3.4-1.6,7.4,0.5,8.1,4.2
						C312.2,160.9,311.9,162.8,310.6,164.4z"></path>
					<path class="st0" d="M346.3,151.9h3.2v17h-3.1v-3.5c-0.1,0.1-0.1,0.1-0.1,0.2c-1.1,2-2.8,3.2-5,3.6c-1.2,0.2-2.4,0.1-3.5-0.2
						c-1.6-0.5-2.6-1.7-3.1-3.3c-0.2-0.8-0.3-1.6-0.3-2.5c0-3.7,0-7.4,0-11v-0.2h3.2v0.3c0,3.2,0,6.3,0,9.5c0,0.8,0,1.6,0.2,2.4
						c0.4,1.4,1.2,2.1,2.7,2.2c2.3,0.1,4.2-1.1,5.2-3.3c0.4-0.9,0.6-1.9,0.6-2.8c0-2.6,0-5.3,0-7.9V151.9z"></path>
					<path class="st0" d="M351.3,166.8c0.5-0.8,1.1-1.5,1.6-2.3c0.4,0.3,0.8,0.6,1.2,0.9c1.2,0.8,2.6,1.2,4.1,1.1
						c0.8-0.1,1.5-0.3,2-0.9c0.6-0.8,0.6-1.8-0.2-2.4c-0.6-0.5-1.2-0.8-1.9-1.1c-0.9-0.4-1.9-0.8-2.8-1.2c-0.9-0.4-1.8-1-2.5-1.8
						c-1.4-1.6-1.4-4.9,1-6.4c1.1-0.7,2.3-1.1,3.7-1.1c1.8-0.1,3.4,0.2,5,1.1c0.3,0.2,0.6,0.4,0.9,0.7c0.1,0,0.1,0.2,0.1,0.2
						c-0.4,0.8-0.8,1.5-1.2,2.3c-0.1-0.1-0.1-0.1-0.2-0.1c-1.5-1.1-3.3-1.6-5.2-1.2c-0.7,0.1-1.3,0.5-1.5,1.2
						c-0.3,0.7-0.1,1.4,0.4,1.9c0.5,0.4,1.1,0.7,1.7,1c1.1,0.5,2.3,1,3.4,1.5c0.9,0.4,1.7,1,2.3,1.8c1.2,1.7,1,4.1-0.5,5.6
						c-1,1-2.2,1.5-3.5,1.7c-2.4,0.3-4.7-0.1-6.8-1.5c-0.3-0.2-0.5-0.4-0.8-0.6C351.5,167,351.4,166.9,351.3,166.8"></path>
					<path class="st0" d="M331.2,164.2c0.2,0.4,0.4,0.7,0.6,1c0.2,0.4,0.4,0.7,0.6,1.1c0.1,0.2,0.1,0.3-0.1,0.5
						c-1.2,1.2-2.7,1.9-4.3,2.3c-2.6,0.5-5.1,0.3-7.3-1.1c-2.2-1.4-3.5-3.4-3.9-5.9c-0.4-2.1-0.1-4.1,0.9-6c1.3-2.5,3.4-3.9,6.1-4.4
						c2.2-0.4,4.3-0.2,6.2,0.8c0.8,0.4,1.5,0.9,2,1.5c-0.5,0.8-1,1.5-1.5,2.3c-0.1,0-0.1-0.1-0.1-0.1c-1.9-1.8-4.8-2.3-7.2-1.3
						c-1.7,0.8-2.8,2.2-3.2,4c-0.4,1.9-0.1,3.7,1.1,5.3c1.1,1.5,2.7,2.2,4.5,2.3c2.1,0.1,3.9-0.8,5.4-2.2
						C331.1,164.3,331.2,164.3,331.2,164.2"></path>
					<path class="st0" d="M281.8,167.7c-4.9,7.8-15.3,10.8-23.9,6.8c0.3-0.2,0.6-0.4,0.9-0.5c2.2-1.3,4.6-2.3,7-3.1
						c3-1,6.1-1.8,9.2-2.3c1.7-0.3,3.5-0.5,5.2-0.8c0.5-0.1,1-0.1,1.6-0.1C281.7,167.7,281.7,167.7,281.8,167.7"></path>
					<path class="st0" d="M292.3,168.9h-3.2c0-0.1,0-0.2,0-0.3c0-4.5,0-9,0-13.5c0-0.4,0-0.4-0.4-0.4c-0.5,0-1,0-1.5,0
						c-0.2,0-0.2,0-0.2-0.2c0-0.7,0-1.4,0-2.2c0-0.2,0.1-0.2,0.2-0.2c0.5,0,1.1,0,1.6,0c0.2,0,0.3-0.1,0.3-0.3c0-0.9,0-1.7,0.2-2.6
						c0.5-2.2,1.9-3.5,4.1-4.1c1-0.2,2-0.3,3.1-0.2c0.2,0,0.2,0.1,0.2,0.3c0,0.8,0,1.6,0,2.4c0,0.1,0,0.1,0,0.2c-0.3,0-0.6,0-1,0
						c-1,0-1.8,0.2-2.5,1c-0.5,0.5-0.8,1.1-0.8,1.8c-0.1,0.5-0.1,1-0.1,1.5h0.3c1.2,0,2.3,0,3.5,0c0.2,0,0.3,0,0.3,0.3
						c0,0.7,0,1.4,0,2.1c0,0.2-0.1,0.2-0.2,0.2c-1.2,0-2.3,0-3.5,0c-0.3,0-0.3,0-0.3,0.3v13.5V168.9z"></path>
					<path class="st0" d="M266.9,150.2c0.1-0.3,0-0.6-0.2-0.8c0,0-0.1-0.1-0.1-0.1c0-0.5,0-1.1,0-1.6h2.2
						C268.1,148.6,267.5,149.4,266.9,150.2C266.9,150.2,266.9,150.2,266.9,150.2"></path>
					<path class="st0" d="M265.2,150.5c-0.3-0.3-0.5-0.5-0.7-0.8c-0.1-0.1-0.1-0.1-0.1-0.2c-0.1-0.5-0.4-0.9-0.7-1.4
						c-0.1-0.1-0.1-0.2-0.2-0.4h1.9c0,0.3,0,0.7,0,1c0,0,0,0.1,0,0.1c0,0.3,0,0.6-0.2,0.9C265.1,149.9,265.1,150.2,265.2,150.5"></path>
				</g>
				<path class="st0" d="M0,125l5.3-27.8h0.2l21.1,28.3c2.4,0.7,3.6,0.9,5.6,0.9c7.5,0,12.6-3.9,12.6-10.9c0-5.1-3.1-8-10.2-11.8
					l-11.2-6C9.2,90.3,2.4,82.3,2.4,69.3c0-17.2,14-28.4,36.6-28.4c11.1,0,19.9,1.9,28.3,4.9l-6.6,26.9h-0.2L40.7,44.6
					c-0.9-0.3-2-0.5-2.9-0.5c-7.5,0-11.2,4.3-11.2,9c0,6,2.7,10.2,12.8,15.5l12.8,6.8C63.9,81.7,70,90.3,70,100.8
					c0,17.7-17.9,28.6-38.8,28.6C23.2,129.4,11.9,128.6,0,125z"></path>
				<path class="st0" d="M156.7,112.4c-7.2,10.9-18.6,17-34.4,17c-24,0-43.8-16.7-43.8-43.1c0-24.9,16.7-45.5,43.9-45.5
					c16,0,27.1,9.4,27.1,21.8c0,14.1-10.9,26.6-31.3,34.2c9.7,9.5,22,15.8,33.4,15.8c1.7,0,3.4-0.2,4.9-0.5L156.7,112.4z M99.6,56.9
					c0,14.1,7.3,28.4,17.5,39c4.8-6.1,6.6-12.9,6.6-21.6c0-14.8-9.9-27.4-17.2-27.4C102.2,46.8,99.6,50.6,99.6,56.9z"></path>
				<path class="st0" d="M239.1,112.4c-7.2,10.9-18.6,17-34.4,17c-24,0-43.8-16.7-43.8-43.1c0-24.9,16.7-45.5,43.9-45.5
					c16,0,27.1,9.4,27.1,21.8c0,14.1-10.9,26.6-31.3,34.2c9.7,9.5,22,15.8,33.4,15.8c1.7,0,3.4-0.2,4.9-0.5L239.1,112.4z M182,56.9
					c0,14.1,7.3,28.4,17.5,39c4.8-6.1,6.6-12.9,6.6-21.6c0-14.8-9.9-27.4-17.2-27.4C184.6,46.8,182,50.6,182,56.9z"></path>
				<path class="st0" d="M363.4,125v2.7h-40.5l-40-39.7v37h5.1v2.7h-44.3V125h5.1V23.7l-9.7-8.3L282.9,0v85.3l12.9-9.4
					c8.3-6.1,12.4-10.2,12.4-17.9c0-4.4-1.9-9.4-7.3-12.1v-0.9H335c1,1.4,1.4,2.6,1.4,4.3c0,6.8-8,11.8-19.2,16.7l-10.4,4.6
					l51.6,54.3H363.4z"></path>
				<g>
					<path class="st0" d="M317.8,26.8v7.7h-17.1v0l1.6-2.1c5.7-7.3,7.8-11.4,7.8-16c0-3.4-0.9-5.2-2.4-5.2c-0.2,0-0.5,0-0.6,0.1
						l-3.4,9.3h0l-2.7-8c2.3-1.2,4.9-2,7.7-2c5.9,0,8.9,2.1,8.9,5.9c0,3.7-2.7,6.5-11.7,12.2h11.3v-1.9H317.8z"></path>
					<path class="st0" d="M336.2,26.8v7.7h-17.1v0l1.6-2.1c5.7-7.3,7.8-11.4,7.8-16c0-3.4-0.9-5.2-2.4-5.2c-0.2,0-0.5,0-0.6,0.1
						l-3.4,9.3h0l-2.7-8c2.3-1.2,4.9-2,7.7-2c5.9,0,8.9,2.1,8.9,5.9c0,3.7-2.7,6.5-11.7,12.2h11.3v-1.9H336.2z"></path>
				</g>
			</g>
		</g>
		
	</g>
</g>
</svg>